<svg width="430" height="430" viewBox="0 0 430 430" fill="none" xmlns="http://www.w3.org/2000/svg">
<path d="M344.511 166.555C334.18 143.888 317.548 124.67 296.597 111.195C275.646 97.7193 251.261 90.5545 226.351 90.555C178.191 90.555 135.351 117.735 112.951 156.685C86.4608 150.375 61.8108 173.985 65.7608 200.925C36.2508 217.465 19.3608 253.795 32.9808 291.875C42.9808 319.985 70.0708 338.415 99.9208 338.415H314.571C352.441 338.415 386.281 314.015 397.461 277.835C412.701 228.415 386.081 182.325 344.511 166.555Z" fill="#4BB3FD"/>
<g style="mix-blend-mode:multiply" opacity="0.5">
<path d="M128.701 266.435C128.694 253.377 132.173 240.554 138.777 229.289C145.382 218.024 154.873 208.726 166.271 202.355C162.271 175.415 186.961 151.795 213.461 158.115C228.25 132.554 251.115 112.634 278.461 101.485C262.035 94.2772 244.289 90.5652 226.351 90.585C178.191 90.585 135.351 117.765 112.951 156.715C86.4608 150.405 61.8108 174.015 65.7608 200.955C36.2508 217.485 19.3608 253.825 32.9808 291.905C42.9808 320.015 70.0708 338.445 99.9208 338.445H187.791C171.131 335.132 156.136 326.144 145.361 313.013C134.586 299.882 128.698 283.421 128.701 266.435Z" fill="#4BB3FD"/>
</g>
<path d="M344.511 166.555C334.18 143.888 317.548 124.67 296.597 111.195C275.646 97.7193 251.261 90.5545 226.351 90.555C178.191 90.555 135.351 117.735 112.951 156.685C86.4608 150.375 61.8108 173.985 65.7608 200.925C36.2508 217.465 19.3608 253.795 32.9808 291.875C42.9808 319.985 70.0708 338.415 99.9208 338.415H314.571C352.441 338.415 386.281 314.015 397.461 277.835C412.701 228.415 386.081 182.325 344.511 166.555Z" stroke="#121331" stroke-width="7" stroke-linecap="round" stroke-linejoin="round"/>
<path d="M144.421 205.395C150.171 183.305 134.421 161.835 112.951 156.715" stroke="#121331" stroke-width="7" stroke-linecap="round" stroke-linejoin="round"/>
<path d="M354.141 243.525C358.807 217.476 355.449 190.623 344.511 166.525" stroke="#121331" stroke-width="7" stroke-linecap="round" stroke-linejoin="round"/>
<path d="M186.574 292.569L127.645 239.562L186.577 186.564L186.542 219.177L164.32 239.564L186.542 259.955L186.574 292.569Z" fill="#3A3347"/>
<g style="mix-blend-mode:multiply" opacity="0.5">
<path d="M186.574 292.569L127.645 239.562L186.577 186.564L186.542 219.177L164.32 239.564L186.542 259.955L186.574 292.569Z" fill="#3A3347"/>
</g>
<path d="M273.292 186.564L332.224 239.562L273.294 292.569L273.326 259.955L295.549 239.564L273.326 219.177L273.292 186.564Z" fill="#3A3347"/>
<path d="M198.129 293.08L233.509 186.564H261.739L226.36 293.08H198.129Z" fill="#3A3347"/>
<g style="mix-blend-mode:multiply" opacity="0.5">
<path d="M198.129 293.08L233.509 186.564H247.624L212.245 293.08H198.129Z" fill="#3A3347"/>
</g>
<path d="M186.574 292.569L127.645 239.562L186.577 186.564L186.542 219.177L164.32 239.564L186.542 259.955L186.574 292.569Z" stroke="#121331" stroke-width="7" stroke-linecap="square" stroke-linejoin="round"/>
<path d="M273.292 186.564L332.224 239.562L273.294 292.569L273.326 259.955L295.549 239.564L273.326 219.177L273.292 186.564Z" stroke="#121331" stroke-width="7" stroke-linecap="square" stroke-linejoin="round"/>
<path d="M198.129 293.08L233.509 186.564H261.739L226.36 293.08H198.129Z" stroke="#121331" stroke-width="7" stroke-linecap="square" stroke-linejoin="round"/>
</svg>
